<mxfile host="app.diagrams.net" modified="2023-04-14T13:09:46.466Z" agent="Mozilla/5.0 (Windows NT 10.0; Win64; x64) AppleWebKit/537.36 (KHTML, like Gecko) Chrome/113.0.0.0 Safari/537.36 Edg/113.0.1774.9" etag="MXYH-B1BoG2MWejBUQ7_" version="21.1.5" type="github">
  <diagram name="Page-1" id="a34WWTlVmY8gnKJxBDup">
    <mxGraphModel dx="2334" dy="-371" grid="1" gridSize="10" guides="1" tooltips="1" connect="1" arrows="1" fold="1" page="1" pageScale="1" pageWidth="827" pageHeight="1169" math="0" shadow="0">
      <root>
        <mxCell id="0" />
        <mxCell id="1" parent="0" />
        <mxCell id="UJBx3O05_DqvKXMGEAJc-1" value="Req.&amp;nbsp;&lt;br&gt;list of items than can be sold are predefined&lt;br&gt;x can put a buy request&lt;br&gt;y can put a sell request&lt;br&gt;when there is a match a request can be met&lt;br&gt;List past sale records&lt;br&gt;List current buy offers&amp;nbsp;&lt;br&gt;List current sale orders&lt;br&gt;&lt;br&gt;&lt;br&gt;&lt;br&gt;&lt;br&gt;Assumptions&lt;br&gt;if sale price is &amp;gt; buy price the order will not be settled" style="text;html=1;align=center;verticalAlign=middle;resizable=0;points=[];autosize=1;strokeColor=none;fillColor=none;" parent="1" vertex="1">
          <mxGeometry x="-5" y="1180" width="310" height="220" as="geometry" />
        </mxCell>
        <mxCell id="L8m7pbBerMlkk8ux_L73-12" value="" style="edgeStyle=orthogonalEdgeStyle;rounded=0;orthogonalLoop=1;jettySize=auto;html=1;" edge="1" parent="1" source="UJBx3O05_DqvKXMGEAJc-2" target="UJBx3O05_DqvKXMGEAJc-3">
          <mxGeometry relative="1" as="geometry" />
        </mxCell>
        <mxCell id="UJBx3O05_DqvKXMGEAJc-2" value="Actor" style="shape=umlActor;verticalLabelPosition=bottom;verticalAlign=top;html=1;outlineConnect=0;" parent="1" vertex="1">
          <mxGeometry x="70" y="1520" width="30" height="60" as="geometry" />
        </mxCell>
        <mxCell id="UJBx3O05_DqvKXMGEAJc-3" value="API Gateway" style="rounded=0;whiteSpace=wrap;html=1;" parent="1" vertex="1">
          <mxGeometry x="160" y="1415" width="70" height="270" as="geometry" />
        </mxCell>
        <mxCell id="UJBx3O05_DqvKXMGEAJc-6" value="Backend" style="whiteSpace=wrap;html=1;aspect=fixed;" parent="1" vertex="1">
          <mxGeometry x="429" y="1498" width="80" height="80" as="geometry" />
        </mxCell>
        <mxCell id="UJBx3O05_DqvKXMGEAJc-7" value="UI handler" style="whiteSpace=wrap;html=1;aspect=fixed;" parent="1" vertex="1">
          <mxGeometry x="439" y="1508" width="80" height="80" as="geometry" />
        </mxCell>
        <mxCell id="UJBx3O05_DqvKXMGEAJc-8" value="" style="shape=cylinder3;whiteSpace=wrap;html=1;boundedLbl=1;backgroundOutline=1;size=15;" parent="1" vertex="1">
          <mxGeometry x="590" y="1498" width="60" height="80" as="geometry" />
        </mxCell>
        <mxCell id="UJBx3O05_DqvKXMGEAJc-9" value="SQL" style="shape=cylinder3;whiteSpace=wrap;html=1;boundedLbl=1;backgroundOutline=1;size=15;" parent="1" vertex="1">
          <mxGeometry x="600" y="1508" width="60" height="80" as="geometry" />
        </mxCell>
        <mxCell id="UJBx3O05_DqvKXMGEAJc-10" value="cache" style="rhombus;whiteSpace=wrap;html=1;" parent="1" vertex="1">
          <mxGeometry x="439" y="1650" width="80" height="35" as="geometry" />
        </mxCell>
        <mxCell id="UJBx3O05_DqvKXMGEAJc-11" value="cache" style="rhombus;whiteSpace=wrap;html=1;" parent="1" vertex="1">
          <mxGeometry x="45" y="1630" width="80" height="35" as="geometry" />
        </mxCell>
        <mxCell id="UJBx3O05_DqvKXMGEAJc-12" value="" style="shape=cylinder3;whiteSpace=wrap;html=1;boundedLbl=1;backgroundOutline=1;size=15;rotation=90;" parent="1" vertex="1">
          <mxGeometry x="300" y="1483" width="60" height="130" as="geometry" />
        </mxCell>
        <mxCell id="UJBx3O05_DqvKXMGEAJc-13" value="&lt;h1&gt;Users table&lt;br&gt;&lt;/h1&gt;&lt;p&gt;id&lt;/p&gt;&lt;p&gt;Name&lt;/p&gt;&lt;p&gt;Password&lt;/p&gt;" style="text;html=1;strokeColor=none;fillColor=none;spacing=5;spacingTop=-20;whiteSpace=wrap;overflow=hidden;rounded=0;" parent="1" vertex="1">
          <mxGeometry x="690" y="1488" width="190" height="120" as="geometry" />
        </mxCell>
        <mxCell id="UJBx3O05_DqvKXMGEAJc-14" value="&lt;h1&gt;Buy Request Table&lt;br&gt;&lt;/h1&gt;&lt;div&gt;&lt;div&gt;id&lt;/div&gt;&lt;div&gt;Item id - int&lt;/div&gt;&lt;div&gt;UserId&lt;/div&gt;&lt;div&gt;quantity - int&lt;/div&gt;&lt;div&gt;price - BigDecimal&lt;/div&gt;&lt;div&gt;version&lt;/div&gt;&lt;/div&gt;" style="text;html=1;strokeColor=none;fillColor=none;spacing=5;spacingTop=-20;whiteSpace=wrap;overflow=hidden;rounded=0;" parent="1" vertex="1">
          <mxGeometry x="827" y="1378" width="230" height="120" as="geometry" />
        </mxCell>
        <mxCell id="UJBx3O05_DqvKXMGEAJc-15" value="&lt;h1&gt;Item table&lt;/h1&gt;&lt;div&gt;&lt;div&gt;Item id&lt;/div&gt;&lt;div&gt;Company Id&lt;/div&gt;&lt;div&gt;ItemName&lt;/div&gt;&lt;div&gt;ItemDescription&lt;/div&gt;&lt;/div&gt;" style="text;html=1;strokeColor=none;fillColor=none;spacing=5;spacingTop=-20;whiteSpace=wrap;overflow=hidden;rounded=0;" parent="1" vertex="1">
          <mxGeometry x="1067" y="1458" width="190" height="120" as="geometry" />
        </mxCell>
        <mxCell id="UJBx3O05_DqvKXMGEAJc-16" value="&lt;h1&gt;Sell Request table&lt;br&gt;&lt;/h1&gt;&lt;div&gt;&lt;div&gt;id&lt;/div&gt;&lt;div&gt;UserId&lt;/div&gt;&lt;div&gt;Item id&amp;nbsp; - int&lt;/div&gt;&lt;div&gt;Quantity - int&lt;/div&gt;&lt;div&gt;price - BigDecimal&lt;/div&gt;&lt;div&gt;version&lt;/div&gt;&lt;/div&gt;" style="text;html=1;strokeColor=none;fillColor=none;spacing=5;spacingTop=-20;whiteSpace=wrap;overflow=hidden;rounded=0;" parent="1" vertex="1">
          <mxGeometry x="827" y="1570" width="240" height="150" as="geometry" />
        </mxCell>
        <mxCell id="UJBx3O05_DqvKXMGEAJc-18" value="Backend" style="whiteSpace=wrap;html=1;aspect=fixed;" parent="1" vertex="1">
          <mxGeometry x="430" y="1353" width="80" height="80" as="geometry" />
        </mxCell>
        <mxCell id="UJBx3O05_DqvKXMGEAJc-19" value="matcher" style="whiteSpace=wrap;html=1;aspect=fixed;" parent="1" vertex="1">
          <mxGeometry x="440" y="1363" width="80" height="80" as="geometry" />
        </mxCell>
        <mxCell id="L8m7pbBerMlkk8ux_L73-1" value="" style="endArrow=none;dashed=1;html=1;dashPattern=1 3;strokeWidth=2;rounded=0;exitX=0.855;exitY=0;exitDx=0;exitDy=4.35;exitPerimeter=0;" edge="1" parent="1" source="UJBx3O05_DqvKXMGEAJc-9">
          <mxGeometry width="50" height="50" relative="1" as="geometry">
            <mxPoint x="470" y="1570" as="sourcePoint" />
            <mxPoint x="1100" y="1200" as="targetPoint" />
          </mxGeometry>
        </mxCell>
        <mxCell id="L8m7pbBerMlkk8ux_L73-2" value="" style="endArrow=none;dashed=1;html=1;rounded=0;entryX=0.855;entryY=1;entryDx=0;entryDy=-4.35;entryPerimeter=0;" edge="1" parent="1" target="UJBx3O05_DqvKXMGEAJc-9">
          <mxGeometry width="50" height="50" relative="1" as="geometry">
            <mxPoint x="1140" y="1930" as="sourcePoint" />
            <mxPoint x="520" y="1700" as="targetPoint" />
          </mxGeometry>
        </mxCell>
        <mxCell id="L8m7pbBerMlkk8ux_L73-4" value="&lt;h1&gt;Company table&lt;/h1&gt;&lt;div&gt;&lt;div&gt;Company Id&lt;/div&gt;&lt;div&gt;Company Name&lt;/div&gt;&lt;/div&gt;" style="text;html=1;strokeColor=none;fillColor=none;spacing=5;spacingTop=-20;whiteSpace=wrap;overflow=hidden;rounded=0;" vertex="1" parent="1">
          <mxGeometry x="1067" y="1258" width="190" height="92" as="geometry" />
        </mxCell>
        <mxCell id="L8m7pbBerMlkk8ux_L73-5" value="&lt;h1&gt;&lt;font style=&quot;font-size: 24px;&quot;&gt;Transaction Table&lt;/font&gt;&lt;/h1&gt;SellerId&lt;br&gt;BuyerId&lt;br&gt;ItemId&lt;br&gt;SalePrice&lt;br&gt;Quantity&lt;br&gt;TransactionTimestamp" style="text;whiteSpace=wrap;html=1;" vertex="1" parent="1">
          <mxGeometry x="1067" y="1650" width="273" height="175" as="geometry" />
        </mxCell>
        <mxCell id="L8m7pbBerMlkk8ux_L73-6" value="" style="endArrow=classic;html=1;rounded=0;entryX=0.5;entryY=1;entryDx=0;entryDy=0;entryPerimeter=0;" edge="1" parent="1" source="UJBx3O05_DqvKXMGEAJc-3" target="UJBx3O05_DqvKXMGEAJc-12">
          <mxGeometry width="50" height="50" relative="1" as="geometry">
            <mxPoint x="470" y="1520" as="sourcePoint" />
            <mxPoint x="520" y="1470" as="targetPoint" />
          </mxGeometry>
        </mxCell>
        <mxCell id="L8m7pbBerMlkk8ux_L73-7" value="" style="endArrow=classic;html=1;rounded=0;exitX=0.5;exitY=0;exitDx=0;exitDy=0;exitPerimeter=0;entryX=0;entryY=0.5;entryDx=0;entryDy=0;" edge="1" parent="1" source="UJBx3O05_DqvKXMGEAJc-12" target="UJBx3O05_DqvKXMGEAJc-7">
          <mxGeometry width="50" height="50" relative="1" as="geometry">
            <mxPoint x="470" y="1520" as="sourcePoint" />
            <mxPoint x="520" y="1470" as="targetPoint" />
          </mxGeometry>
        </mxCell>
        <mxCell id="L8m7pbBerMlkk8ux_L73-8" value="" style="endArrow=classic;html=1;rounded=0;exitX=0;exitY=0.5;exitDx=0;exitDy=0;exitPerimeter=0;entryX=1;entryY=0.5;entryDx=0;entryDy=0;" edge="1" parent="1" source="UJBx3O05_DqvKXMGEAJc-8" target="UJBx3O05_DqvKXMGEAJc-19">
          <mxGeometry width="50" height="50" relative="1" as="geometry">
            <mxPoint x="470" y="1520" as="sourcePoint" />
            <mxPoint x="520" y="1470" as="targetPoint" />
          </mxGeometry>
        </mxCell>
        <mxCell id="L8m7pbBerMlkk8ux_L73-9" value="" style="endArrow=classic;html=1;rounded=0;exitX=0.5;exitY=1;exitDx=0;exitDy=0;entryX=0.5;entryY=0;entryDx=0;entryDy=0;" edge="1" parent="1" source="UJBx3O05_DqvKXMGEAJc-7" target="UJBx3O05_DqvKXMGEAJc-10">
          <mxGeometry width="50" height="50" relative="1" as="geometry">
            <mxPoint x="470" y="1520" as="sourcePoint" />
            <mxPoint x="520" y="1470" as="targetPoint" />
          </mxGeometry>
        </mxCell>
        <mxCell id="L8m7pbBerMlkk8ux_L73-10" value="" style="endArrow=classic;html=1;rounded=0;exitX=1;exitY=0.5;exitDx=0;exitDy=0;entryX=0;entryY=0;entryDx=0;entryDy=52.5;entryPerimeter=0;" edge="1" parent="1" source="UJBx3O05_DqvKXMGEAJc-7" target="UJBx3O05_DqvKXMGEAJc-8">
          <mxGeometry width="50" height="50" relative="1" as="geometry">
            <mxPoint x="590" y="1520" as="sourcePoint" />
            <mxPoint x="640" y="1470" as="targetPoint" />
          </mxGeometry>
        </mxCell>
      </root>
    </mxGraphModel>
  </diagram>
</mxfile>
